# Blender 4.4.3
# www.blender.org
mtllib Untitled.mtl
o Sphere
v -0.267179 -0.490816 -0.863354
v -0.202274 0.903317 -0.423872
v 0.196115 0.199514 -0.980482
v 0.189834 0.975984 -0.203282
v 0.172654 0.703182 -0.717184
v 0.224762 -0.369702 -0.927231
v 0.581925 -0.328508 -0.787730
v 0.248711 -0.757496 -0.632487
v 0.580240 0.449906 -0.717901
v 0.936663 -0.098084 -0.426235
v 0.095284 1.003959 0.083724
v 0.496393 0.788463 -0.391557
v 0.759822 -0.641350 -0.220106
v 0.295050 -0.949704 -0.232168
v 0.902693 0.512335 -0.003144
v 1.007736 0.127230 0.139839
v 0.956628 -0.295861 0.173572
v 0.597169 0.833416 0.102894
v 0.717549 0.483326 0.554534
v 0.765762 -0.098975 0.650062
v 0.731202 -0.588612 0.413439
v 0.183961 0.870112 0.503188
v 0.363483 0.298690 0.922505
v 0.384926 -0.410268 0.852270
v 0.374918 -0.805327 0.506653
v 0.321458 -0.966500 0.136653
v -0.183979 0.307755 0.949415
v -0.087612 -0.138694 1.015885
v -0.236097 -0.607486 0.787473
v -0.268285 0.597697 0.788147
v -0.264792 -0.864433 0.477592
v -0.198494 0.897346 0.428204
v -0.658777 -0.104148 0.786709
v -0.697849 0.550484 0.500474
v -0.893623 0.098976 0.458703
v -0.554854 0.805655 0.256621
v -0.721828 -0.600535 0.397319
v -0.984379 0.296973 0.048885
v -0.939283 -0.376879 0.162723
v -0.936275 -0.001141 -0.408912
v -0.746182 -0.661925 -0.189317
v -0.751480 0.657830 -0.267807
v -0.444899 -0.915720 -0.028884
v -0.278834 0.970951 -0.019202
v -0.604678 0.297758 -0.776519
v -0.728936 -0.371083 -0.618511
v -0.297418 0.588597 -0.778600
v -0.209111 0.071271 -0.990741
v -0.268267 -0.864451 -0.474137
v -0.130902 -1.002543 -0.021483
vn -0.0224 -0.9581 -0.2855
vn 0.2812 0.4548 -0.8450
vn 0.3698 -0.0681 -0.9266
vn 0.2391 0.8543 -0.4615
vn 0.6908 0.0661 -0.7200
vn 0.5685 -0.6321 -0.5266
vn 0.4365 0.8836 -0.1693
vn 0.7409 0.5521 -0.3825
vn 0.5526 -0.8299 -0.0774
vn 0.9621 0.1896 -0.1962
vn 0.3212 0.9469 0.0135
vn 0.8216 -0.5638 0.0840
vn 0.0975 -0.9939 -0.0522
vn 0.5508 -0.7914 0.2652
vn 0.8659 0.1500 0.4772
vn 0.9138 -0.0786 0.3985
vn 0.3052 0.9240 0.2303
vn 0.6521 -0.3667 0.6636
vn 0.4972 0.7449 0.4449
vn 0.3849 0.6216 0.6823
vn 0.2814 -0.0862 0.9557
vn 0.0500 -0.4502 0.8915
vn 0.1302 -0.6547 0.7446
vn 0.0424 -0.7710 0.6354
vn 0.0671 -0.9182 0.3903
vn 0.0511 0.1579 0.9861
vn -0.0150 -0.9647 0.2629
vn -0.3687 0.0585 0.9277
vn 0.0086 0.9532 0.3023
vn -0.3702 -0.3095 0.8759
vn -0.5264 0.2912 0.7988
vn -0.5577 -0.4673 0.6860
vn -0.7093 0.2464 0.6604
vn -0.5166 -0.8138 0.2661
vn -0.8522 -0.2149 0.4770
vn -0.8227 -0.2825 0.4933
vn -0.7857 0.5966 0.1636
vn -0.5390 0.8415 -0.0351
vn -0.7632 -0.6387 0.0985
vn -0.9956 -0.0759 -0.0552
vn -0.8996 0.3167 -0.3007
vn -0.8983 -0.3649 -0.2446
vn -0.4508 0.8626 -0.2295
vn -0.5174 -0.8023 -0.2976
vn -0.5684 -0.6703 -0.4771
vn -0.4675 0.7198 -0.5132
vn -0.3054 0.3162 -0.8982
vn -0.0558 0.9918 -0.1151
vn -0.0740 -0.2131 -0.9742
vn -0.1004 0.7575 -0.6451
vn 0.0028 0.4634 -0.8862
vn 0.0538 -0.0903 -0.9945
vn 0.0449 -0.6027 -0.7967
vn 0.0519 -0.8979 -0.4371
vn 0.1013 0.8773 -0.4691
vn 0.3580 -0.5509 -0.7539
vn 0.5280 0.0770 -0.8458
vn 0.4222 0.6811 -0.5982
vn 0.5093 -0.7513 -0.4197
vn 0.7661 -0.4305 -0.4773
vn 0.8484 0.3326 -0.4118
vn 0.6753 0.7093 -0.2021
vn 0.9893 -0.1254 -0.0743
vn 0.9224 -0.3565 -0.1483
vn 0.6406 -0.7623 0.0924
vn 0.7401 0.6126 0.2776
vn 0.8812 0.3559 0.3111
vn 0.8460 -0.2792 0.4543
vn 0.6644 0.1742 0.7268
vn 0.5115 -0.0694 0.8565
vn 0.5149 -0.5718 0.6387
vn -0.0685 0.7732 0.6304
vn 0.1235 0.6120 0.7811
vn 0.0508 0.4967 0.8664
vn -0.4345 0.7343 0.5216
vn -0.5066 -0.1228 -0.8534
vn -0.4799 -0.6530 0.5859
vn -0.5527 0.3059 0.7752
vn -0.1367 0.9733 0.1847
vn -0.2658 -0.9451 0.1902
vn -0.3378 0.9171 0.2115
vn -0.9790 -0.0315 0.2016
vn -0.8682 0.3433 0.3582
vn -0.6727 -0.7325 0.1046
vn -0.7823 0.6111 0.1210
vn -0.9164 -0.3132 -0.2491
vn -0.8186 0.3302 -0.4699
vn -0.7322 -0.0248 -0.6806
vn -0.4849 -0.6302 -0.6064
vn -0.5622 0.5898 -0.5797
vn -0.2560 -0.9436 -0.2102
vn -0.0809 0.9805 -0.1792
vn -0.0628 -0.7199 -0.6912
vn -0.0918 0.3643 -0.9267
vt 0.828169 0.181513
vt 0.618172 0.118268
vt 0.803482 0.029735
vt 0.713630 0.743016
vt 0.640455 0.637392
vt 0.721204 0.561533
vt 0.642591 0.405310
vt 0.713766 0.377197
vt 0.659331 0.901110
vt 0.609744 0.781531
vt 0.565607 0.470177
vt 0.546046 0.282548
vt 0.689098 0.234520
vt 0.471172 0.797056
vt 0.498731 0.650484
vt 0.418036 0.120075
vt 0.478467 0.533799
vt 0.374098 0.950679
vt 0.469690 0.406338
vt 0.421948 0.312847
vt 0.453125 0.000000
vt 0.351362 0.216171
vt 0.391352 0.655330
vt 0.389282 0.469165
vt 0.303843 0.823516
vt 0.320215 0.368721
vt 0.312060 0.592510
vt 0.238070 0.453468
vt 0.208642 0.306289
vt 0.171741 0.183197
vt 0.221054 0.595265
vt 0.079157 0.048815
vt 0.139508 0.469402
vt 0.170820 0.841342
vt 0.196230 0.698705
vt 0.084466 0.292801
vt 0.097495 0.674738
vt 0.076782 0.530835
vt 0.022611 0.150359
vt 0.030469 0.383797
vt 0.066931 0.793298
vt 0.012908 0.591332
vt 0.031154 0.911618
vt 0.000000 0.784407
vt 0.000000 0.273040
vt 0.996289 0.584928
vt 0.935049 0.500692
vt 0.992171 0.399333
vt 0.942053 0.718160
vt 0.886871 0.383980
vt 0.945396 0.911618
vt 0.820029 0.844678
vt 0.949425 0.148089
vt 0.959766 0.278455
vt 0.804501 0.694669
vt 0.858717 0.592813
vt 0.785227 0.524248
vt 0.828125 1.000000
vt 0.795836 0.343472
s 0
f 49/1/1 14/2/1 50/3/1
f 5/4/2 9/5/2 3/6/2
f 3/6/3 7/7/3 6/8/3
f 4/9/4 12/10/4 5/4/4
f 7/7/5 9/5/5 10/11/5
f 7/7/6 13/12/6 8/13/6
f 4/9/7 18/14/7 12/10/7
f 9/5/8 12/10/8 15/15/8
f 14/2/9 13/12/9 26/16/9
f 10/11/10 15/15/10 16/17/10
f 4/9/11 11/18/11 18/14/11
f 13/12/12 17/19/12 21/20/12
f 50/21/13 14/2/13 26/16/13
f 26/16/14 21/20/14 25/22/14
f 16/17/15 19/23/15 20/24/15
f 16/17/16 20/24/16 17/19/16
f 11/18/17 22/25/17 18/14/17
f 20/24/18 24/26/18 21/20/18
f 18/14/19 22/25/19 19/23/19
f 19/23/20 22/25/20 23/27/20
f 23/27/21 28/28/21 24/26/21
f 24/26/22 28/28/22 29/29/22
f 24/26/23 29/29/23 25/22/23
f 25/22/24 29/29/24 31/30/24
f 25/22/25 31/30/25 26/16/25
f 23/27/26 27/31/26 28/28/26
f 31/30/27 50/32/27 26/16/27
f 28/28/28 27/31/28 33/33/28
f 22/25/29 11/18/29 32/34/29
f 28/28/30 33/33/30 29/29/30
f 27/31/31 30/35/31 33/33/31
f 29/29/32 33/33/32 37/36/32
f 33/33/33 34/37/33 35/38/33
f 31/30/34 37/36/34 43/39/34
f 35/38/35 39/40/35 33/33/35
f 33/33/36 39/40/36 37/36/36
f 34/37/37 36/41/37 38/42/37
f 36/41/38 44/43/38 42/44/38
f 39/40/39 41/45/39 37/36/39
f 38/46/40 40/47/40 39/48/40
f 38/46/41 42/49/41 40/47/41
f 40/47/42 46/50/42 39/48/42
f 44/51/43 2/52/43 42/49/43
f 43/53/44 41/54/44 49/1/44
f 46/50/45 49/1/45 41/54/45
f 2/52/46 47/55/46 42/49/46
f 45/56/47 47/55/47 48/57/47
f 44/51/48 11/58/48 4/9/48
f 48/57/49 6/8/49 1/59/49
f 47/55/50 2/52/50 5/4/50
f 47/55/51 5/4/51 3/6/51
f 48/57/52 3/6/52 6/8/52
f 1/59/53 6/8/53 8/13/53
f 49/1/54 8/13/54 14/2/54
f 2/52/55 4/9/55 5/4/55
f 8/13/56 6/8/56 7/7/56
f 3/6/57 9/5/57 7/7/57
f 5/4/58 12/10/58 9/5/58
f 8/13/59 13/12/59 14/2/59
f 13/12/60 7/7/60 10/11/60
f 10/11/61 9/5/61 15/15/61
f 15/15/62 12/10/62 18/14/62
f 10/11/63 16/17/63 17/19/63
f 13/12/64 10/11/64 17/19/64
f 26/16/65 13/12/65 21/20/65
f 15/15/66 18/14/66 19/23/66
f 16/17/67 15/15/67 19/23/67
f 17/19/68 20/24/68 21/20/68
f 20/24/69 19/23/69 23/27/69
f 20/24/70 23/27/70 24/26/70
f 21/20/71 24/26/71 25/22/71
f 22/25/72 32/34/72 30/35/72
f 23/27/73 22/25/73 30/35/73
f 23/27/74 30/35/74 27/31/74
f 34/37/75 30/35/75 32/34/75 36/41/75
f 1/59/76 46/50/76 45/56/76 48/57/76
f 29/29/77 37/36/77 31/30/77
f 33/33/78 30/35/78 34/37/78
f 11/18/79 44/43/79 32/34/79
f 31/30/80 43/39/80 50/32/80
f 32/34/81 44/43/81 36/41/81
f 35/38/82 38/42/82 39/40/82
f 35/38/83 34/37/83 38/42/83
f 43/39/84 37/36/84 41/45/84
f 38/42/85 36/41/85 42/44/85
f 41/54/86 39/48/86 46/50/86
f 40/47/87 42/49/87 45/56/87
f 40/47/88 45/56/88 46/50/88
f 46/50/89 1/59/89 49/1/89
f 45/56/90 42/49/90 47/55/90
f 43/53/91 49/1/91 50/3/91
f 2/52/92 44/51/92 4/9/92
f 49/1/93 1/59/93 8/13/93
f 48/57/94 47/55/94 3/6/94
