# Blender 4.4.3
# www.blender.org
mtllib Slim_light.mtl
o Cube
v 0.825607 0.536043 1.042237
v -0.967744 2.457074 -0.967599
v -1.122173 2.181793 1.017505
v -0.947910 0.512048 1.024034
v -0.946855 0.395024 0.673764
v 0.472204 0.578916 -1.023782
v -0.861019 0.414828 -0.984781
v 0.854378 2.288373 -1.012790
v 0.872163 1.859940 -0.975482
v 0.839910 0.967809 -0.943942
v 0.988010 0.840162 -0.892101
v -1.141728 1.023165 0.985055
v 0.889098 2.055530 0.999353
v 0.997952 1.609711 0.817854
v 0.860152 1.306672 0.963134
v -1.116916 1.217974 -0.932725
v 0.757109 2.378687 1.015494
v 0.826800 2.531020 -0.703050
v 0.913062 2.347378 -0.070123
v 0.977369 2.302816 0.509130
v -0.106631 0.514800 1.082527
v 0.375021 0.471681 1.043647
v -1.180006 2.419738 -0.325126
v -0.554391 2.393683 -0.932832
v 0.884900 0.452669 0.447459
v 0.795423 0.476335 -0.243540
v 0.782941 0.397289 -0.799802
v -0.188898 2.458323 -0.938236
v -0.656254 2.574115 -0.364662
v 0.223765 2.418240 -0.309575
v 0.411425 2.469620 0.131347
v -0.333895 2.464585 -0.212971
v -0.560916 2.433222 0.195786
v -1.121073 2.378841 0.218300
v 0.630730 2.487991 0.464985
v 0.010070 2.452418 0.936137
v -1.061336 2.503026 0.749199
v 0.166349 1.951770 1.052546
v 0.211315 1.017448 1.001135
v 0.266516 1.442510 1.062644
v -0.426738 2.430762 1.028805
v -0.465409 0.776492 1.067706
v -0.326555 1.326187 0.986214
v -0.731939 1.259771 1.065507
v -1.200651 1.471896 0.875348
v -1.186384 2.235260 0.568525
v -1.188004 0.731057 0.532182
v -1.161477 1.864677 0.601524
v -1.193275 0.647897 0.033390
v -1.127364 1.321783 0.079032
v -1.144778 1.070987 -0.157060
v -1.124581 1.923943 -0.047276
v -1.216645 1.568016 -0.457293
v -1.098224 1.895010 -1.058556
v -0.271887 0.414201 -0.635363
v -1.155801 0.500574 -0.536111
v 0.293019 0.398538 -0.723433
v -0.492354 0.416707 -0.158564
v -0.887109 0.384819 0.266745
v 0.086138 0.370452 0.562673
v -0.357943 0.361607 0.435923
v 0.887871 1.295886 -0.624004
v 0.906385 0.881371 -0.339478
v 0.868329 1.503028 -0.142543
v 0.920197 1.911029 -0.423758
v 0.895622 0.924612 0.133799
v 0.878238 1.584074 0.366168
v 0.926495 0.997805 0.649869
v 0.818241 1.894030 0.606925
v -0.706665 1.238326 -1.008464
v -0.785264 0.768175 -1.080039
v -0.419854 1.597041 -1.003788
v -0.329570 2.050452 -1.076267
v -0.129981 0.862781 -0.985581
v 0.187973 1.309842 -1.039300
v 0.254092 2.208842 -0.973495
v 0.629776 1.610926 -1.052720
v -1.207092 0.805206 -0.876434
vn -0.0197 0.8084 -0.5883
vn 0.0299 0.9995 0.0108
vn 0.5323 0.8238 -0.1951
vn 0.0787 0.7781 -0.6231
vn 0.1103 0.9938 0.0112
vn 0.7929 0.6089 -0.0237
vn 0.0965 0.9870 -0.1288
vn -0.8167 0.5765 0.0244
vn -0.0329 0.9990 0.0315
vn 0.0511 0.9987 0.0075
vn 0.0507 0.8119 0.5816
vn 0.2169 0.9760 0.0209
vn -0.7501 0.6595 -0.0488
vn -0.5046 0.8325 0.2287
vn 0.0811 0.2816 -0.9561
vn -0.9869 0.1590 -0.0279
vn -0.0090 0.6206 0.7841
vn 0.3956 0.6038 0.6920
vn 0.9134 0.4000 0.0760
vn 0.0133 -0.0678 0.9976
vn 0.0257 0.0162 0.9995
vn 0.7177 -0.0251 0.6959
vn 0.7299 0.0710 0.6799
vn -0.0138 0.0359 0.9993
vn 0.0590 -0.6410 0.7653
vn 0.1054 -0.0765 0.9915
vn -0.0860 -0.0018 0.9963
vn -0.6292 0.2544 0.7344
vn -0.8830 -0.0049 0.4694
vn 0.5503 -0.4813 0.6823
vn 0.9198 -0.2808 -0.2741
vn 0.0117 0.0688 0.9976
vn -0.9855 -0.0333 -0.1664
vn -0.9997 0.0210 0.0149
vn -0.9998 0.0183 0.0116
vn -0.9594 -0.2651 0.0960
vn -0.9997 0.0149 0.0196
vn -0.9988 0.0452 -0.0163
vn -0.6104 0.0924 -0.7867
vn -0.7543 -0.0013 -0.6565
vn -0.4319 -0.5873 0.6845
vn 0.0523 -0.9704 0.2356
vn -0.7024 -0.0682 0.7085
vn -0.9492 -0.3137 0.0254
vn -0.0646 -0.9951 -0.0745
vn -0.3022 -0.9532 -0.0072
vn -0.7387 -0.6718 -0.0546
vn -0.0330 -0.9601 -0.2777
vn -0.0361 -0.9969 0.0699
vn 0.6591 -0.7515 0.0284
vn 0.4819 -0.8081 -0.3387
vn 0.0370 -0.9935 0.1080
vn 0.7175 -0.6964 0.0149
vn 0.0861 -0.4417 -0.8930
vn -0.0036 -0.9953 -0.0966
vn -0.2625 -0.7590 -0.5958
vn 0.9989 0.0048 -0.0465
vn 0.9966 -0.0673 0.0480
vn 0.6249 0.1174 -0.7718
vn 0.9996 -0.0270 -0.0079
vn 0.9977 -0.0492 -0.0457
vn 0.9983 -0.0387 -0.0441
vn 0.9985 0.0156 0.0529
vn 0.9970 -0.0026 0.0776
vn 0.9921 -0.1050 0.0682
vn 0.7376 0.0217 -0.6749
vn 0.5472 0.3732 -0.7492
vn 0.8797 0.1310 -0.4571
vn -0.3880 0.6605 -0.6428
vn -0.0428 -0.0569 -0.9975
vn -0.0443 0.0905 -0.9949
vn -0.0288 0.0225 -0.9993
vn -0.0164 -0.0082 -0.9998
vn -0.0068 -0.0351 -0.9994
vn 0.1294 0.0179 -0.9914
vn -0.1068 -0.0804 -0.9910
vn -0.8749 -0.1150 -0.4704
vn 0.0218 -0.5239 0.8515
vt 0.503224 0.931949
vt 0.690530 0.696742
vt 0.962745 0.851257
vt 0.260655 0.967861
vt 0.390661 0.635896
vt 0.974102 0.590760
vt 0.780855 0.467862
vt 0.023469 0.705757
vt 0.299225 0.400083
vt 0.214056 0.675272
vt 0.571773 0.054267
vt 0.844835 0.270134
vt 0.058701 0.409743
vt 0.094693 0.127366
vt 0.715830 0.866129
vt 0.000000 0.202606
vt 0.350675 0.017205
vt 0.933821 0.032852
vt 0.997018 0.230432
vt 0.699565 0.537084
vt 0.681926 0.297525
vt 0.972700 0.397919
vt 0.994181 0.830009
vt 0.357385 0.171573
vt 0.752622 0.060701
vt 0.425921 0.451551
vt 0.218448 0.432288
vt 0.052782 0.886011
vt 0.071984 0.521691
vt 0.955552 0.076589
vt 1.000000 0.569259
vt 0.958662 0.991033
vt 0.647934 0.751986
vt 0.600208 0.995117
vt 0.340874 0.970034
vt 0.222204 0.705337
vt 0.440588 0.500173
vt 0.619949 0.302203
vt 0.177941 0.145140
vt 0.513920 0.790281
vt 0.698683 0.545082
vt 0.680939 0.961952
vt 0.959538 0.740139
vt 0.968965 0.396976
vt 0.103864 0.041356
vt 0.153922 0.004567
vt 0.024391 0.288742
vt 0.202243 0.898467
vt 0.100147 1.000000
vt 0.471111 0.987642
vt 0.474320 0.103415
vt 0.306428 0.581624
vt 0.125657 0.394638
vt 0.033860 0.839711
vt 0.666503 0.851497
vt 0.394112 0.304004
vt 0.956148 0.611676
vt 0.923609 0.885309
vt 0.623825 0.244521
vt 0.958415 0.265110
vt 0.809745 1.000000
vt 0.432473 0.833355
vt 0.171555 0.982563
vt 0.046906 0.166004
vt 0.000000 0.460617
vt 0.811561 0.424461
vt 0.674375 0.185355
vt 0.951807 0.284310
vt 0.582914 0.514042
vt 0.406923 0.227773
vt 0.719928 0.752528
vt 0.327563 0.585282
vt 0.556984 0.965046
vt 0.638515 0.009485
vt 0.185190 0.248253
vt 0.249159 0.955108
vt 0.019133 0.436284
vt 0.174212 0.730938
vt 0.945909 0.690379
vt 0.975147 0.899986
vt 0.866659 0.990390
vt 0.047447 0.053785
vt 0.960053 -0.000021
vt 0.906174 0.142854
vt 0.033997 0.923229
vt 0.338789 0.559295
vt 0.034356 0.722078
vt 0.379415 0.807928
vt 0.197233 0.404254
vt 0.510574 0.224634
vt 0.656725 0.453066
vt 0.877773 0.583571
vt 0.797992 0.045347
vt 0.031844 0.294706
vt 0.205769 0.170668
vt 0.014380 0.124243
vt 0.167176 0.002744
vt 0.086186 1.000000
vt 0.503262 0.028020
vt 0.969353 0.145180
vt 0.817122 0.037542
vt 0.932182 0.975190
vt 0.000000 1.000000
vt 0.047214 0.584254
vt 0.017729 0.831244
vt 0.023651 0.986574
vt 0.247120 0.002107
s 1
usemtl Material.001
f 28/1/1 30/2/2 18/3/3
f 24/4/4 32/5/5 28/1/1
f 30/2/2 19/6/6 18/3/3
f 28/1/1 32/5/5 30/2/2
f 32/5/5 31/7/7 30/2/2
f 23/8/8 33/9/9 29/10/10
f 33/9/9 36/11/11 35/12/12
f 33/9/9 34/13/13 37/14/14
f 33/9/9 37/14/14 36/11/11
f 28/1/1 18/3/3 76/15/15
f 34/13/13 46/16/16 37/14/14
f 37/14/14 41/17/17 36/11/11
f 35/12/12 17/18/18 20/19/19
f 31/7/7 35/12/12 19/6/6
f 40/20/20 39/21/21 15/22/22
f 13/23/23 40/20/20 15/22/22
f 39/21/21 42/24/24 22/25/25
f 39/21/21 43/26/26 42/24/24
f 43/26/26 44/27/27 42/24/24
f 44/27/27 3/28/28 45/29/29
f 1/30/30 15/22/22 39/21/21
f 14/31/31 13/23/23 15/22/22
f 17/32/18 38/33/32 13/23/23
f 36/34/11 41/35/17 38/33/32
f 45/29/29 48/36/33 50/37/34
f 50/37/34 51/38/35 47/39/36
f 52/40/37 53/41/38 50/37/34
f 50/37/34 53/41/38 51/38/35
f 23/42/8 54/43/39 52/40/37
f 53/41/38 16/44/40 51/38/35
f 53/41/38 54/43/39 16/44/40
f 52/40/37 54/43/39 53/41/38
f 4/45/41 47/39/36 5/46/42
f 4/45/41 12/47/43 47/39/36
f 45/29/29 46/48/16 48/36/33
f 37/49/14 46/48/16 3/28/28
f 48/36/33 34/50/13 52/40/37
f 34/50/13 23/42/8 52/40/37
f 47/39/36 49/51/44 5/46/42
f 58/52/45 59/53/46 56/54/47
f 57/55/48 61/56/49 58/52/45
f 26/57/50 57/55/48 27/58/51
f 57/55/48 60/59/52 61/56/49
f 25/60/53 22/25/25 60/59/52
f 59/53/46 61/56/49 4/45/41
f 6/61/54 55/62/55 7/63/56
f 6/61/54 27/58/51 57/55/48
f 60/59/52 4/45/41 61/56/49
f 59/53/46 5/64/42 49/65/44
f 62/66/57 63/67/58 10/68/59
f 63/67/58 64/69/60 66/70/61
f 64/69/60 65/71/62 67/72/63
f 65/71/62 19/73/6 67/72/63
f 63/67/58 66/70/61 26/74/50
f 64/69/60 68/75/64 66/70/61
f 19/73/6 20/76/19 67/72/63
f 67/72/63 15/77/22 68/75/64
f 20/76/19 69/78/65 67/72/63
f 9/79/66 8/80/67 65/71/62
f 18/81/3 65/71/62 8/80/67
f 18/81/3 19/73/6 65/71/62
f 68/75/64 15/77/22 1/82/30
f 27/83/51 11/84/68 26/74/50
f 2/85/69 72/86/70 54/87/39
f 2/85/69 73/88/71 72/86/70
f 70/89/72 72/86/70 74/90/73
f 76/15/15 75/91/74 73/88/71
f 28/1/1 76/15/15 73/88/71
f 76/15/15 77/92/75 75/91/74
f 75/91/74 10/68/59 6/93/54
f 77/92/75 10/68/59 75/91/74
f 16/94/40 71/95/76 78/96/77
f 54/87/39 70/89/72 16/94/40
f 24/4/4 73/88/71 2/85/69
f 24/4/4 28/1/1 73/88/71
f 76/15/15 18/3/3 8/80/67
f 77/92/75 9/79/66 10/68/59
f 10/68/59 11/84/68 6/93/54
f 71/95/76 74/90/73 7/97/56
f 74/90/73 6/93/54 7/97/56
f 24/4/4 29/10/10 32/5/5
f 30/2/2 31/7/7 19/6/6
f 32/5/5 29/10/10 33/9/9
f 23/8/8 34/13/13 33/9/9
f 32/5/5 33/9/9 35/12/12
f 31/7/7 32/5/5 35/12/12
f 35/12/12 36/11/11 17/18/18
f 24/4/4 2/85/69 29/10/10
f 29/10/10 2/85/69 23/8/8
f 19/6/6 35/12/12 20/19/19
f 1/30/30 39/21/21 22/25/25
f 13/23/23 38/33/32 40/20/20
f 40/20/20 43/26/26 39/21/21
f 40/20/20 38/33/32 43/26/26
f 43/26/26 38/33/32 44/27/27
f 38/33/32 41/35/17 3/28/28
f 38/33/32 3/28/28 44/27/27
f 42/24/24 12/47/43 4/45/41
f 44/27/27 12/47/43 42/24/24
f 17/32/18 36/34/11 38/33/32
f 41/35/17 37/98/14 3/28/28
f 44/27/27 45/29/29 12/47/43
f 42/24/24 4/45/41 21/99/78
f 21/99/78 22/25/25 42/24/24
f 45/29/29 50/37/34 47/39/36
f 47/39/36 51/38/35 49/51/44
f 48/36/33 52/40/37 50/37/34
f 51/38/35 78/100/77 56/101/47
f 78/100/77 51/38/35 16/44/40
f 12/47/43 45/29/29 47/39/36
f 45/29/29 3/28/28 46/48/16
f 48/36/33 46/48/16 34/50/13
f 23/42/8 2/102/69 54/43/39
f 49/51/44 51/38/35 56/101/47
f 7/63/56 55/62/55 56/54/47
f 56/54/47 55/62/55 58/52/45
f 55/62/55 57/55/48 58/52/45
f 26/57/50 60/59/52 57/55/48
f 26/57/50 25/60/53 60/59/52
f 58/52/45 61/56/49 59/53/46
f 59/53/46 4/45/41 5/64/42
f 25/60/53 1/30/30 22/25/25
f 78/103/77 7/63/56 56/54/47
f 6/61/54 57/55/48 55/62/55
f 60/59/52 22/25/25 21/99/78
f 60/59/52 21/99/78 4/45/41
f 56/54/47 59/53/46 49/65/44
f 10/68/59 63/67/58 11/84/68
f 62/66/57 9/79/66 64/69/60
f 62/66/57 64/69/60 63/67/58
f 64/69/60 67/72/63 68/75/64
f 67/72/63 69/78/65 15/77/22
f 69/78/65 14/104/31 15/77/22
f 20/76/19 13/105/23 69/78/65
f 10/68/59 9/79/66 62/66/57
f 65/71/62 64/69/60 9/79/66
f 13/105/23 20/76/19 17/106/18
f 14/104/31 69/78/65 13/105/23
f 68/75/64 1/82/30 25/107/53
f 25/107/53 66/70/61 68/75/64
f 26/74/50 66/70/61 25/107/53
f 26/74/50 11/84/68 63/67/58
f 16/94/40 70/89/72 71/95/76
f 71/95/76 70/89/72 74/90/73
f 72/86/70 73/88/71 75/91/74
f 72/86/70 75/91/74 74/90/73
f 74/90/73 75/91/74 6/93/54
f 77/92/75 76/15/15 9/79/66
f 54/87/39 72/86/70 70/89/72
f 9/79/66 76/15/15 8/80/67
f 6/93/54 11/84/68 27/83/51
f 7/97/56 78/96/77 71/95/76
